<?xml version="1.0" encoding="UTF-8"?>
<!-- Generated by Pixelmator Pro 3.6.3 -->
<svg width="400" height="400" viewBox="0 0 400 400" xmlns="http://www.w3.org/2000/svg">
    <g id="-1">
        <g id="logo">
            <path id="path1" fill="#ffffff" fill-rule="evenodd" stroke="none" d="M 0 378.5 C 0 390.374115 9.625878 400 21.5 400 L 378.5 400 C 390.374115 400 400 390.374115 400 378.5 L 400 21.5 C 400 9.625885 390.374115 0 378.5 0 L 21.5 0 C 9.625878 0 0 9.625885 0 21.5 L 0 378.5 Z"/>
            <path id="path2" fill="#ee5fa7" fill-rule="evenodd" stroke="none" d="M 294 310 L 106 310 C 86.670044 310 71 294.329956 71 275 L 71 107 C 71 87.670044 86.670044 72 106 72 L 294 72 C 313.329956 72 329 87.670044 329 107 L 329 275 C 329 294.329956 313.329956 310 294 310 Z M 309 145 C 309 136.715698 302.284302 130 294 130 L 106 130 C 97.715698 130 91 136.715698 91 145 L 91 275 C 91 283.284302 97.715698 290 106 290 L 294 290 C 302.284302 290 309 283.284302 309 275 L 309 145 Z M 269 220 L 257 220 C 254.790894 220 253 218.209167 253 216 L 253 204 C 253 201.790833 254.790894 200 257 200 L 269 200 C 271.209106 200 273 201.790833 273 204 L 273 216 C 273 218.209167 271.209106 220 269 220 Z M 269 178 L 257 178 C 254.790894 178 253 176.209167 253 174 L 253 162 C 253 159.790833 254.790894 158 257 158 L 269 158 C 271.209106 158 273 159.790833 273 162 L 273 174 C 273 176.209167 271.209106 178 269 178 Z M 227 262 L 215 262 C 212.790894 262 211 260.209167 211 258 L 211 246 C 211 243.790833 212.790894 242 215 242 L 227 242 C 229.209106 242 231 243.790833 231 246 L 231 258 C 231 260.209167 229.209106 262 227 262 Z M 227 220 L 215 220 C 212.790894 220 211 218.209167 211 216 L 211 204 C 211 201.790833 212.790894 200 215 200 L 227 200 C 229.209106 200 231 201.790833 231 204 L 231 216 C 231 218.209167 229.209106 220 227 220 Z M 227 178 L 215 178 C 212.790894 178 211 176.209167 211 174 L 211 162 C 211 159.790833 212.790894 158 215 158 L 227 158 C 229.209106 158 231 159.790833 231 162 L 231 174 C 231 176.209167 229.209106 178 227 178 Z M 185 262 L 173 262 C 170.790833 262 169 260.209167 169 258 L 169 246 C 169 243.790833 170.790833 242 173 242 L 185 242 C 187.209106 242 189 243.790833 189 246 L 189 258 C 189 260.209167 187.209106 262 185 262 Z M 185 220 L 173 220 C 170.790833 220 169 218.209167 169 216 L 169 204 C 169 201.790833 170.790833 200 173 200 L 185 200 C 187.209106 200 189 201.790833 189 204 L 189 216 C 189 218.209167 187.209106 220 185 220 Z M 185 178 L 173 178 C 170.790833 178 169 176.209167 169 174 L 169 162 C 169 159.790833 170.790833 158 173 158 L 185 158 C 187.209106 158 189 159.790833 189 162 L 189 174 C 189 176.209167 187.209106 178 185 178 Z M 143 262 L 131 262 C 128.790833 262 127 260.209167 127 258 L 127 246 C 127 243.790833 128.790833 242 131 242 L 143 242 C 145.209167 242 147 243.790833 147 246 L 147 258 C 147 260.209167 145.209167 262 143 262 Z M 143 220 L 131 220 C 128.790833 220 127 218.209167 127 216 L 127 204 C 127 201.790833 128.790833 200 131 200 L 143 200 C 145.209167 200 147 201.790833 147 204 L 147 216 C 147 218.209167 145.209167 220 143 220 Z"/>
            <path id="path3" fill="#0376bb" fill-rule="evenodd" stroke="none" d="M 177.7677 123.597687 C 176.985901 124.022156 174.753586 125.227112 174.290588 125.469971 C 172.689789 126.311432 171.462631 126.226105 170.546005 124.667572 C 167.93428 120.174347 166.039215 115.301331 164.929123 110.224152 C 164.366104 107.581543 162.566299 106.932678 159.046387 107.281982 C 155.841019 107.600006 151.571655 107.816925 146.478226 107.816925 C 141.384781 107.816925 137.113281 107.600006 133.907104 107.281982 C 130.386124 106.932678 128.586044 107.581543 128.022751 110.224152 C 126.912857 115.301392 125.017784 120.174438 122.405876 124.667572 C 121.489792 126.226105 120.262367 126.311432 118.661293 125.469971 C 118.198837 125.227112 115.965988 124.022156 115.184181 123.597687 C 111.965172 121.849762 111.97438 116.933655 111.97438 114.236206 C 111.954506 104.307648 113.956627 94.479004 117.858879 85.349396 C 118.338188 84.232727 120.143341 81.312469 125.882996 80.802399 C 132.674072 80.19873 139.545105 80 146.478226 80 C 153.411316 80 160.279694 80.19873 167.068359 80.802399 C 172.806671 81.312469 174.611023 84.232727 175.090607 85.349396 C 178.992371 94.479156 180.994492 104.307709 180.975082 114.236206 C 180.976547 116.933655 180.984848 121.849762 177.7677 123.597687 Z M 138.724518 92.571106 C 138.724518 91.684784 138.006012 90.966278 137.11969 90.966278 L 134.177521 90.966278 L 134.177521 88.024109 C 134.177521 87.137787 133.459015 86.419281 132.572693 86.419281 L 131.502808 86.419281 C 130.616486 86.419281 129.897995 87.137787 129.897995 88.024109 L 129.897995 90.966278 L 126.955818 90.966278 C 126.069496 90.966278 125.35099 91.684784 125.35099 92.571106 L 125.35099 93.640991 C 125.35099 94.527313 126.069496 95.245819 126.955818 95.245819 L 129.897995 95.245819 L 129.897995 98.187988 C 129.897995 99.07431 130.616486 99.792816 131.502808 99.792816 L 132.572693 99.792816 C 133.459015 99.792816 134.177521 99.07431 134.177521 98.187988 L 134.177521 95.245819 L 137.11969 95.245819 C 138.006012 95.245819 138.724518 94.527313 138.724518 93.640991 L 138.724518 92.571106 Z M 143.806458 101.397644 L 141.131744 101.397644 C 140.393158 101.397644 139.794388 101.996399 139.794388 102.734985 C 139.794388 103.473572 140.393158 104.072327 141.131744 104.072327 L 143.806458 104.072327 C 144.545044 104.072327 145.143799 103.473572 145.143799 102.734985 C 145.143799 101.996399 144.545044 101.397644 143.806458 101.397644 Z M 151.830566 101.397644 L 149.155869 101.397644 C 148.417267 101.397644 147.818512 101.996399 147.818512 102.734985 C 147.818512 103.473572 148.417267 104.072327 149.155869 104.072327 L 151.830566 104.072327 C 152.569168 104.072327 153.167923 103.473572 153.167923 102.734985 C 153.167923 101.996399 152.569168 101.397644 151.830566 101.397644 Z M 156.377563 90.966278 C 155.195801 90.966278 154.237793 91.924286 154.237793 93.106049 C 154.237793 94.287811 155.195801 95.245819 156.377563 95.245819 C 157.559326 95.245819 158.517334 94.287811 158.517334 93.106049 C 158.517334 91.924286 157.559326 90.966278 156.377563 90.966278 Z M 160.924561 86.419281 C 159.742798 86.419281 158.78479 87.377289 158.78479 88.559052 C 158.78479 89.740814 159.742798 90.698822 160.924561 90.698822 C 162.106323 90.698822 163.064331 89.740814 163.064331 88.559052 C 163.064331 87.377289 162.106323 86.419281 160.924561 86.419281 Z M 160.924561 95.513275 C 159.742798 95.513275 158.78479 96.471283 158.78479 97.653046 C 158.78479 98.834808 159.742798 99.792816 160.924561 99.792816 C 162.106323 99.792816 163.064331 98.834808 163.064331 97.653046 C 163.064331 96.471283 162.106323 95.513275 160.924561 95.513275 Z M 165.471558 90.966278 C 164.289795 90.966278 163.331787 91.924286 163.331787 93.106049 C 163.331787 94.287811 164.289795 95.245819 165.471558 95.245819 C 166.65332 95.245819 167.611328 94.287811 167.611328 93.106049 C 167.611328 91.924286 166.65332 90.966278 165.471558 90.966278 Z"/>
            <path id="path4" fill="#f9e231" fill-rule="evenodd" stroke="none" d="M 141.643829 155.452057 C 135.263016 155.452057 130 160.592575 130 166.980377 C 130 173.366333 135.263016 178.506851 141.643829 178.506851 L 141.643829 182 L 147 182 L 147 179.554794 L 144.554794 179.554794 L 144.554794 179.321915 L 147 179.321915 L 147 175.945206 L 144.554794 175.945206 L 144.554794 175.712326 L 147 175.712326 L 147 172.452057 L 144.554794 172.452057 L 144.554794 172.219177 L 147 172.219177 L 147 168.842468 L 144.554794 168.842468 L 144.554794 168.609589 L 147 168.609589 L 147 165.349319 L 144.554794 165.349319 L 144.554794 165.11644 L 147 165.11644 L 147 161.739731 L 144.554794 161.739731 L 144.554794 161.506851 L 147 161.506851 L 147 158.246582 L 144.554794 158.246582 L 144.554794 158.013702 L 147 158.013702 L 147 154.636993 L 144.554794 154.636993 L 144.554794 154.404114 L 147 154.404114 L 147 151.958908 L 141.643829 151.958908 L 141.643829 155.452057 Z M 141.527405 158.712326 L 141.527405 166.280823 C 141.141556 166.280823 140.828766 166.593613 140.828766 166.979446 C 140.828766 167.365295 141.141556 167.678085 141.527405 167.678085 L 141.527405 175.246582 L 141.294525 175.246582 L 141.294525 172.801376 C 139.802475 172.743149 138.458786 172.259109 137.452057 171.287674 L 137.452057 171.287674 L 135.821915 172.917801 L 135.589035 172.684937 L 137.219177 171.054794 L 137.219177 171.054794 C 136.215591 170.012909 135.724228 168.649185 135.705475 167.095886 L 135.705475 167.095886 L 133.260269 167.095886 L 133.260269 166.863007 L 135.705475 166.863007 L 135.705475 166.863007 C 135.724228 165.316254 136.223984 163.944839 137.219177 162.904114 L 137.219177 162.904114 L 135.589035 161.273972 L 135.821915 161.041092 L 137.452057 162.671234 C 138.456329 161.701645 139.806549 161.216797 141.294525 161.157532 L 141.294525 158.712326 L 141.527405 158.712326 Z"/>
            <path id="path5" fill="#35dfb8" fill-rule="evenodd" stroke="none" d="M 267.898712 251.5 C 270.317993 253.753998 271.498657 255.958084 270.752869 257.25 C 270.00705 258.541931 267.517609 258.604492 264.356018 257.636475 C 263.613678 260.858765 262.30481 263 260.813019 263 C 259.321228 263 258.011566 260.859497 257.269165 257.636719 C 254.108002 258.604492 251.619003 258.541748 250.873199 257.25 C 250.127396 255.958252 251.307877 253.754089 253.727341 251.5 C 251.30806 249.246002 250.127396 247.041916 250.873199 245.75 C 251.619003 244.458084 254.108444 244.395493 257.27005 245.363541 C 258.01239 242.141235 259.321228 240 260.813019 240 C 262.30481 240 263.614471 242.140518 264.356903 245.363281 C 267.518066 244.395493 270.00705 244.458252 270.752869 245.75 C 271.498657 247.041748 270.318176 249.245911 267.898712 251.5 Z M 269.980774 256.80426 C 270.553802 255.811783 269.449341 253.997726 267.274261 252.059219 C 266.521667 252.705338 265.733643 253.308975 264.913818 253.86731 C 264.840179 254.856628 264.711395 255.841064 264.528076 256.81604 C 267.294037 257.730408 269.407806 257.796631 269.980774 256.80426 Z M 257.647583 248.518463 C 257.995331 248.298996 258.352142 248.083313 258.718079 247.871445 C 259.084656 247.659805 259.450409 247.459839 259.814575 247.268356 C 259.160858 246.966232 258.522675 246.6987 257.909515 246.469772 C 257.801361 247.115555 257.71286 247.800919 257.647583 248.518463 Z M 259.163818 248.64328 C 258.60968 248.963257 258.077362 249.290726 257.566925 249.625671 C 257.533203 250.234558 257.514587 250.860107 257.514587 251.5 C 257.514587 252.139893 257.533112 252.7659 257.566925 253.374146 C 258.077179 253.707733 258.609497 254.035202 259.163818 254.356552 C 259.717957 254.676529 260.2677 254.973679 260.813019 255.248016 C 261.357025 254.972916 261.906738 254.675751 262.46225 254.356552 C 263.016388 254.03656 263.548706 253.709106 264.059143 253.374146 C 264.092834 252.7659 264.111481 252.139893 264.111481 251.5 C 264.111481 250.860107 264.092926 250.2341 264.059143 249.625854 C 263.548859 249.292267 263.016571 248.964798 262.46225 248.643448 C 261.908112 248.323471 261.358368 248.026321 260.813019 247.751984 C 260.269043 248.026917 259.719299 248.324066 259.163818 248.643448 L 259.163818 248.64328 Z M 256.647797 250.249527 C 256.059418 250.664688 255.510101 251.083954 255.005005 251.500626 C 255.509842 251.917114 256.060669 252.336029 256.649048 252.751007 C 256.632843 252.339859 256.623108 251.923187 256.623108 251.5 C 256.623108 251.076813 256.632019 250.660416 256.647797 250.24971 L 256.647797 250.249527 Z M 263.978485 254.481354 C 263.630737 254.700836 263.273926 254.916504 262.90799 255.128387 C 262.541412 255.340027 262.175659 255.539978 261.811493 255.731461 C 262.46521 256.033569 263.103394 256.301117 263.716553 256.530029 C 263.824707 255.884445 263.913208 255.199081 263.978485 254.481537 L 263.978485 254.481354 Z M 264.978271 252.750107 C 265.56662 252.334946 266.115967 251.915695 266.621063 251.499023 C 266.116241 251.08252 265.565399 250.66362 264.97702 250.248642 C 264.993225 250.659958 265.00296 251.076645 265.00296 251.499817 C 265.00296 251.923004 264.994049 252.339584 264.978271 252.75029 L 264.978271 252.750107 Z M 260.813019 262.108521 C 261.958832 262.108521 262.967194 260.227539 263.558228 257.374817 C 262.621948 257.045837 261.704742 256.664856 260.810883 256.233704 C 259.917999 256.664551 259.001862 257.045471 258.066772 257.374817 C 258.65799 260.22821 259.667053 262.108521 260.813019 262.108521 Z M 259.812805 255.731644 C 259.449066 255.54039 259.084167 255.339371 258.718079 255.128555 C 258.351959 254.917755 257.995392 254.702255 257.648315 254.482071 C 257.713562 255.198639 257.799866 255.885696 257.908447 256.53067 C 258.52124 256.30191 259.159607 256.033508 259.812805 255.731644 Z M 251.645309 256.80426 C 252.21817 257.79657 254.331223 257.730499 257.097015 256.816284 C 256.914734 255.841614 256.786743 254.857544 256.713684 253.868637 C 255.893494 253.310181 255.105103 252.70639 254.352173 252.060104 C 252.177597 253.99826 251.072357 255.811966 251.645309 256.80426 Z M 251.645309 246.19574 C 251.072266 247.188217 252.176712 249.002274 254.351822 250.940781 C 255.104401 250.294662 255.892441 249.691025 256.71225 249.13269 C 256.785889 248.143372 256.914673 247.158936 257.097992 246.183975 C 254.332031 245.269577 252.218246 245.203354 251.645309 246.19574 Z M 260.813019 240.891479 C 259.667236 240.891479 258.658875 242.772476 258.067841 245.625198 C 259.00412 245.954163 259.921326 246.335129 260.815186 246.766281 C 261.708069 246.335464 262.624207 245.954514 263.559296 245.625198 C 262.968079 242.771774 261.959015 240.891479 260.813019 240.891479 Z M 261.813263 247.268356 C 262.176971 247.45961 262.541901 247.660629 262.90799 247.871445 C 263.274078 248.082245 263.630676 248.297745 263.977753 248.517929 C 263.912506 247.801361 263.826202 247.114304 263.717621 246.46933 C 263.104828 246.69809 262.466461 246.966507 261.813263 247.268356 Z M 269.980774 246.19574 C 269.407898 245.20343 267.29483 245.269501 264.529053 246.183701 C 264.711334 247.158386 264.839325 248.142456 264.912384 249.131363 C 265.732574 249.689819 266.520966 250.29361 267.273895 250.939896 C 269.448456 249.00174 270.553711 247.188034 269.980774 246.19574 Z M 260.813019 252.837204 C 260.074524 252.837204 259.47583 252.238525 259.47583 251.5 C 259.47583 250.761475 260.074524 250.162796 260.813019 250.162796 C 261.551544 250.162796 262.150238 250.761475 262.150238 251.5 C 262.150238 252.238525 261.551544 252.837204 260.813019 252.837204 Z"/>
            <path id="path6" fill="#35dfb8" fill-rule="evenodd" stroke="none" d="M 220.230774 115.738464 L 220.230774 115.738464 C 209.091705 115.738464 204.661545 118.923065 204.661545 120.692322 C 204.661545 122.461548 212.276321 126 223.41539 126 C 234.554459 126 245 121.668243 245 116.092316 L 250.307693 116.092316 C 275.517456 116.092316 295.953857 107.273743 295.953857 103 C 295.953857 98.726257 275.517456 89.907684 250.307693 89.907684 L 245 89.907684 C 245 84.331757 234.554459 80 223.41539 80 C 212.276321 80 204.661545 83.538452 204.661545 85.307678 C 204.661545 87.076935 209.091705 90.261536 220.230774 90.261536 L 220.230774 115.738464 Z M 258.092316 103 C 258.092316 100.850311 256.34967 99.107697 254.199997 99.107697 C 252.050339 99.107697 250.307693 100.850311 250.307693 103 C 250.307693 105.149689 252.050339 106.892303 254.199997 106.892303 C 256.34967 106.892303 258.092316 105.149689 258.092316 103 Z M 246.41539 103 C 246.41539 100.264099 244.197479 98.046143 241.461533 98.046143 C 238.725601 98.046143 236.50769 100.264099 236.50769 103 C 236.50769 105.735901 238.725601 107.953857 241.461533 107.953857 C 244.197479 107.953857 246.41539 105.735901 246.41539 103 Z M 218.815384 111.846161 C 218.815384 111.846161 215.603882 111.203949 213.50769 110.784607 C 212.481567 110.598846 211.736176 109.704346 211.738464 108.66153 L 211.738464 97.33847 C 211.736176 96.295654 212.481567 95.401154 213.50769 95.215393 C 215.603882 94.796051 218.815384 94.153839 218.815384 94.153839 L 218.815384 111.846161 Z"/>
        </g>
    </g>
</svg>
